<svg xmlns="http://www.w3.org/2000/svg" width="24" height="24" viewBox="0 0 24 24" fill="none">
<path d="M10.3176 23.9174L2.15438 20.2595C0.84781 19.6735 0 18.3383 0 16.8583V6.30928C0 5.6113 0.688143 5.14443 1.30432 5.41988L9.46758 9.07784C10.7742 9.66376 11.622 10.999 11.622 12.479V23.0303C11.622 23.7283 10.9338 24.1952 10.3176 23.9197V23.9174Z" fill="#01C9BA"/>
<path d="M13.6771 23.9174L21.8404 20.2595C23.147 19.6735 23.9948 18.3383 23.9948 16.8583V6.30928C23.9948 5.6113 23.3066 5.14443 22.6904 5.41988L14.5272 9.07784C13.2206 9.66376 12.3728 10.999 12.3728 12.479V23.0303C12.3728 23.7283 13.0609 24.1952 13.6771 23.9197V23.9174Z" fill="#01C9BA"/>
<path fill-rule="evenodd" clip-rule="evenodd" d="M22.1848 3.93987L13.7809 0.417315C12.4698 -0.133596 11.0058 -0.138264 9.69024 0.39864L1.44827 3.7648C1.0997 3.90719 1.09295 4.41842 1.43702 4.57015L9.69474 8.21643C11.053 8.81637 12.5845 8.8257 13.9495 8.24678L22.1848 4.74523C22.5333 4.59817 22.5311 4.08461 22.1848 3.93987ZM10.1941 5.90541C11.2443 6.36995 12.4317 6.37696 13.4864 5.92876C14.1682 5.63946 14.6493 4.92678 14.3223 4.26218C14.1277 3.86677 13.8401 3.51893 13.4639 3.26058C12.5554 2.63497 11.4804 2.61396 10.5247 3.13685C10.2705 3.27458 10.0389 3.45433 9.83877 3.66909C9.56441 3.96322 9.37326 4.28303 9.24733 4.67053C9.10538 5.10835 9.37841 5.54686 9.79931 5.73308L10.1941 5.90775V5.90541ZM12.0893 1.73418C12.078 1.83126 12.0632 1.95973 11.9775 2.01636V2.01869C11.7661 2.15875 11.6244 1.78292 11.6019 1.64986C11.566 1.43743 11.5907 1.17598 11.6267 0.963556C11.6469 0.842169 11.6919 0.760467 11.8021 0.697439C11.8201 0.688101 11.8381 0.685767 11.8538 0.688101C11.991 0.653086 12.0809 0.972894 12.0944 1.0616C12.1259 1.26936 12.1259 1.48179 12.0944 1.69188C12.0926 1.70495 12.091 1.71915 12.0893 1.73409L12.0893 1.73418ZM13.1085 2.35014C13.2367 2.38516 13.3761 2.24976 13.4571 2.16573C13.6055 2.00933 14.0126 1.5051 13.7764 1.274C13.7697 1.267 13.7629 1.26233 13.7562 1.25766L13.7448 1.25549C13.7244 1.25159 13.7055 1.24796 13.6865 1.24599H13.6505C13.5943 1.25299 13.5403 1.274 13.4886 1.30201C13.4009 1.36971 13.3267 1.45375 13.2592 1.55179C13.158 1.70119 13.0276 1.89494 12.9916 2.07702C12.9713 2.18207 12.9893 2.3198 13.1085 2.35248V2.35014ZM15.1415 2.63732C15.1145 2.68867 15.0763 2.73769 15.0313 2.78438L15.0335 2.78671L15.0335 2.78675C15.0088 2.81241 14.984 2.83808 14.9571 2.86375C14.9256 2.89643 14.8963 2.92911 14.8671 2.96179C14.8649 2.96413 14.8604 2.96413 14.8604 2.96413C14.8592 2.96413 14.8581 2.96529 14.857 2.96646C14.8559 2.96763 14.8547 2.9688 14.8536 2.9688L14.8379 2.98164L14.8221 2.99447C14.8199 2.99564 14.8182 2.99739 14.8168 2.99885C14.8154 3.00031 14.8143 3.00148 14.8131 3.00148H14.8041C14.7592 3.04349 14.7119 3.08318 14.6625 3.11819C14.5343 3.21157 14.2172 3.32595 14.1542 3.08785C14.0958 2.87075 14.4623 2.59997 14.604 2.50192C14.7322 2.41088 15.1055 2.15877 15.1999 2.41555C15.2089 2.43889 15.2067 2.4599 15.1977 2.47858C15.2044 2.5276 15.1864 2.57195 15.1527 2.62331C15.1482 2.62798 15.1437 2.63265 15.1415 2.63732ZM16.194 3.57106C16.0636 3.46367 15.7622 3.58506 15.6475 3.63408C15.4766 3.70878 15.2248 3.82083 15.0988 3.99591C15.0876 4.00525 15.0831 4.01458 15.0808 4.02392C15.0808 4.02626 15.0763 4.03093 15.0741 4.03326C15.0066 4.11263 14.9819 4.20133 15.0606 4.28304C15.2536 4.47917 15.6855 4.19227 15.9035 4.04745C15.9294 4.03025 15.9523 4.01506 15.9714 4.00291C15.9886 3.99195 16.008 3.98064 16.0285 3.96872C16.1259 3.91207 16.247 3.84164 16.2637 3.72979C16.275 3.65743 16.2457 3.6014 16.1917 3.56872L16.194 3.57106ZM7.72944 3.56872C7.94308 3.63175 8.16796 3.73213 8.37261 3.8255V3.82784C8.53452 3.90254 8.91008 4.192 8.65821 4.38809C8.54127 4.47913 8.34112 4.4161 8.22193 4.37175C8.03078 4.29938 7.83963 4.21067 7.65523 4.12197C7.47532 4.0356 7.20321 3.73446 7.48207 3.5804C7.48657 3.57573 7.48881 3.57573 7.49331 3.57573C7.55853 3.52904 7.65298 3.54538 7.72944 3.56872ZM9.48588 3.08315C9.64779 2.98511 9.58258 2.81003 9.49712 2.67931C9.3487 2.45754 9.15305 2.21244 8.95515 2.03736C8.87645 1.96733 8.73252 1.87629 8.64032 1.96966C8.31199 2.18209 8.8742 2.78902 9.04061 2.93842C9.15755 3.04347 9.32621 3.17886 9.48588 3.08315ZM10.2612 2.12528C10.252 2.10512 10.2431 2.08574 10.2345 2.06773V2.0654C10.2333 2.06306 10.2321 2.06048 10.2307 2.05768C10.2024 1.99892 10.1258 1.84022 10.0636 1.67089C9.93987 1.41177 9.85666 1.11531 10.1288 1.11531C10.3019 1.11531 10.4526 1.34875 10.5313 1.47947C10.6528 1.68023 10.727 1.909 10.745 2.14243C10.7562 2.28016 10.7517 2.47391 10.5718 2.45991C10.4084 2.44764 10.326 2.26715 10.2612 2.12528Z" fill="#01C9BA"/>
</svg>