<svg width="174" height="25" viewBox="0 0 174 25" fill="none" xmlns="http://www.w3.org/2000/svg">
<path d="M7.13259 19C5.74059 19 4.51659 18.744 3.46059 18.232C2.40459 17.704 1.58059 16.984 0.988594 16.072C0.412594 15.144 0.124594 14.072 0.124594 12.856C0.124594 11.512 0.404594 10.36 0.964594 9.4C1.52459 8.44 2.26859 7.704 3.19659 7.192C4.14059 6.664 5.18059 6.4 6.31659 6.4C7.61259 6.4 8.69259 6.672 9.55659 7.216C10.4366 7.76 11.1006 8.504 11.5486 9.448C11.9966 10.376 12.2206 11.44 12.2206 12.64C12.2206 12.848 12.2046 13.096 12.1726 13.384C12.1566 13.656 12.1326 13.872 12.1006 14.032H4.03659C4.13259 14.448 4.31659 14.8 4.58859 15.088C4.86059 15.376 5.20459 15.592 5.62059 15.736C6.03659 15.864 6.50059 15.928 7.01259 15.928H10.7806V19H7.13259ZM3.94059 11.704H8.62059C8.58859 11.448 8.54059 11.2 8.47659 10.96C8.41259 10.72 8.30859 10.512 8.16459 10.336C8.03659 10.144 7.88459 9.984 7.70859 9.856C7.53259 9.712 7.32459 9.6 7.08459 9.52C6.86059 9.44 6.60459 9.4 6.31659 9.4C5.94859 9.4 5.62059 9.464 5.33259 9.592C5.04459 9.72 4.80459 9.896 4.61259 10.12C4.42059 10.328 4.26859 10.576 4.15659 10.864C4.06059 11.136 3.98859 11.416 3.94059 11.704ZM23.6197 24.256C22.6437 24.256 21.8197 24.072 21.1477 23.704C20.4917 23.336 19.9957 22.832 19.6597 22.192C19.3237 21.552 19.1557 20.824 19.1557 20.008C19.1557 19.192 19.3157 18.328 19.6357 17.416C19.9557 16.488 20.4837 15.576 21.2197 14.68C21.9717 13.784 22.9797 12.952 24.2437 12.184V5.56H20.9077V2.2H28.0597V19.192C28.0597 20.2 27.8997 21.08 27.5797 21.832C27.2597 22.6 26.7717 23.192 26.1157 23.608C25.4597 24.04 24.6277 24.256 23.6197 24.256ZM23.4037 20.8C23.5957 20.8 23.7637 20.744 23.9077 20.632C24.0517 20.52 24.1557 20.36 24.2197 20.152C24.2997 19.96 24.3397 19.728 24.3397 19.456V15.784C23.7157 16.296 23.2677 16.8 22.9957 17.296C22.7397 17.776 22.5797 18.208 22.5157 18.592C22.4677 18.976 22.4437 19.28 22.4437 19.504C22.4437 19.92 22.5397 20.24 22.7317 20.464C22.9237 20.688 23.1477 20.8 23.4037 20.8ZM35.8555 19.288C34.7675 19.288 33.8075 19.008 32.9755 18.448C32.1435 17.888 31.4955 17.136 31.0315 16.192C30.5675 15.232 30.3355 14.152 30.3355 12.952C30.3355 11.704 30.6075 10.592 31.1515 9.616C31.6955 8.624 32.4635 7.84 33.4555 7.264C34.4635 6.688 35.6475 6.4 37.0075 6.4C38.3835 6.4 39.5515 6.688 40.5115 7.264C41.4875 7.824 42.2315 8.6 42.7435 9.592C43.2715 10.568 43.5355 11.664 43.5355 12.88V19H39.8875V17.032H39.7915C39.5675 17.464 39.2795 17.856 38.9275 18.208C38.5755 18.544 38.1435 18.808 37.6315 19C37.1355 19.192 36.5435 19.288 35.8555 19.288ZM36.9595 16.072C37.5195 16.072 38.0075 15.936 38.4235 15.664C38.8555 15.376 39.1835 14.984 39.4075 14.488C39.6315 13.992 39.7435 13.44 39.7435 12.832C39.7435 12.24 39.6315 11.704 39.4075 11.224C39.1835 10.744 38.8555 10.368 38.4235 10.096C38.0075 9.808 37.5195 9.664 36.9595 9.664C36.3835 9.664 35.8795 9.808 35.4475 10.096C35.0155 10.368 34.6875 10.744 34.4635 11.224C34.2395 11.704 34.1275 12.24 34.1275 12.832C34.1275 13.44 34.2395 13.992 34.4635 14.488C34.6875 14.984 35.0155 15.376 35.4475 15.664C35.8795 15.936 36.3835 16.072 36.9595 16.072ZM51.2305 19.288C50.1425 19.288 49.1825 19.008 48.3505 18.448C47.5185 17.888 46.8705 17.136 46.4065 16.192C45.9425 15.232 45.7105 14.152 45.7105 12.952C45.7105 11.704 45.9825 10.592 46.5265 9.616C47.0705 8.624 47.8385 7.84 48.8305 7.264C49.8385 6.688 51.0225 6.4 52.3825 6.4C53.7585 6.4 54.9265 6.688 55.8865 7.264C56.8625 7.824 57.6065 8.6 58.1185 9.592C58.6465 10.568 58.9105 11.664 58.9105 12.88V19H55.2625V17.032H55.1665C54.9425 17.464 54.6545 17.856 54.3025 18.208C53.9505 18.544 53.5185 18.808 53.0065 19C52.5105 19.192 51.9185 19.288 51.2305 19.288ZM52.3345 16.072C52.8945 16.072 53.3825 15.936 53.7985 15.664C54.2305 15.376 54.5585 14.984 54.7825 14.488C55.0065 13.992 55.1185 13.44 55.1185 12.832C55.1185 12.24 55.0065 11.704 54.7825 11.224C54.5585 10.744 54.2305 10.368 53.7985 10.096C53.3825 9.808 52.8945 9.664 52.3345 9.664C51.7585 9.664 51.2545 9.808 50.8225 10.096C50.3905 10.368 50.0625 10.744 49.8385 11.224C49.6145 11.704 49.5025 12.24 49.5025 12.832C49.5025 13.44 49.6145 13.992 49.8385 14.488C50.0625 14.984 50.3905 15.376 50.8225 15.664C51.2545 15.936 51.7585 16.072 52.3345 16.072ZM67.6855 19.288C66.6615 19.288 65.7335 19.128 64.9015 18.808C64.0855 18.488 63.3975 18.032 62.8375 17.44C62.2775 16.832 61.8455 16.12 61.5415 15.304C61.2375 14.488 61.0855 13.6 61.0855 12.64C61.0855 11.392 61.3335 10.304 61.8295 9.376C62.3415 8.448 63.0375 7.72 63.9175 7.192C64.8135 6.664 65.8375 6.4 66.9895 6.4C67.4855 6.4 67.9495 6.464 68.3815 6.592C68.8295 6.72 69.2295 6.912 69.5815 7.168C69.9495 7.408 70.2535 7.696 70.4935 8.032H70.5655V1.48H74.2855V12.616C74.2855 13.96 74.0135 15.136 73.4695 16.144C72.9255 17.152 72.1575 17.928 71.1655 18.472C70.1895 19.016 69.0295 19.288 67.6855 19.288ZM67.6855 16.072C68.2615 16.072 68.7575 15.936 69.1735 15.664C69.6055 15.376 69.9335 14.992 70.1575 14.512C70.3815 14.016 70.4935 13.464 70.4935 12.856C70.4935 12.248 70.3815 11.704 70.1575 11.224C69.9335 10.744 69.6055 10.368 69.1735 10.096C68.7575 9.808 68.2615 9.664 67.6855 9.664C67.1255 9.664 66.6295 9.808 66.1975 10.096C65.7655 10.368 65.4375 10.744 65.2135 11.224C64.9895 11.704 64.8775 12.248 64.8775 12.856C64.8775 13.464 64.9895 14.016 65.2135 14.512C65.4375 14.992 65.7655 15.376 66.1975 15.664C66.6295 15.936 67.1255 16.072 67.6855 16.072ZM83.1102 19.288C81.8462 19.288 80.7502 19.048 79.8222 18.568C78.9102 18.072 78.2062 17.408 77.7102 16.576C77.2142 15.728 76.9662 14.792 76.9662 13.768V6.688H80.6862V13.672C80.6862 14.104 80.7902 14.504 80.9982 14.872C81.2062 15.224 81.4862 15.512 81.8382 15.736C82.2062 15.944 82.6222 16.048 83.0862 16.048C83.5342 16.048 83.9342 15.944 84.2862 15.736C84.6542 15.512 84.9422 15.224 85.1502 14.872C85.3582 14.504 85.4622 14.104 85.4622 13.672V6.688H89.1822V13.768C89.1822 14.792 88.9422 15.728 88.4622 16.576C87.9822 17.408 87.2862 18.072 86.3742 18.568C85.4782 19.048 84.3902 19.288 83.1102 19.288ZM91.9662 19V6.688H95.7102V19H91.9662ZM93.8382 5.296C93.2462 5.296 92.7342 5.08 92.3022 4.648C91.8702 4.216 91.6542 3.704 91.6542 3.112C91.6542 2.52 91.8702 2.008 92.3022 1.576C92.7342 1.128 93.2462 0.904 93.8382 0.904C94.4302 0.904 94.9422 1.128 95.3742 1.576C95.8062 2.008 96.0222 2.52 96.0222 3.112C96.0222 3.704 95.8062 4.216 95.3742 4.648C94.9422 5.08 94.4302 5.296 93.8382 5.296ZM104.859 19V2.2H112.083C113.203 2.2 114.227 2.456 115.155 2.968C116.099 3.48 116.851 4.192 117.411 5.104C117.971 6 118.251 7.04 118.251 8.224C118.251 9.408 117.971 10.464 117.411 11.392C116.851 12.304 116.107 13.016 115.179 13.528C114.251 14.04 113.219 14.296 112.083 14.296H108.891V19H104.859ZM108.891 10.912H111.627C112.107 10.912 112.539 10.808 112.923 10.6C113.307 10.392 113.619 10.088 113.859 9.688C114.099 9.288 114.219 8.808 114.219 8.248C114.219 7.688 114.099 7.208 113.859 6.808C113.619 6.408 113.299 6.104 112.899 5.896C112.515 5.672 112.091 5.56 111.627 5.56H108.891V10.912ZM120.232 19V6.688H123.976V19H120.232ZM122.104 5.296C121.512 5.296 121 5.08 120.568 4.648C120.136 4.216 119.92 3.704 119.92 3.112C119.92 2.52 120.136 2.008 120.568 1.576C121 1.128 121.512 0.904 122.104 0.904C122.696 0.904 123.208 1.128 123.64 1.576C124.072 2.008 124.288 2.52 124.288 3.112C124.288 3.704 124.072 4.216 123.64 4.648C123.208 5.08 122.696 5.296 122.104 5.296ZM131.213 19C130.077 19 129.189 18.68 128.549 18.04C127.909 17.384 127.589 16.504 127.589 15.4V3.688H131.333V15.184C131.333 15.376 131.397 15.544 131.525 15.688C131.669 15.816 131.837 15.88 132.029 15.88H134.717V19H131.213ZM125.573 9.736V6.688H134.717V9.736H125.573ZM141.512 19.288C140.424 19.288 139.464 19.008 138.632 18.448C137.8 17.888 137.152 17.136 136.688 16.192C136.224 15.232 135.992 14.152 135.992 12.952C135.992 11.704 136.264 10.592 136.808 9.616C137.352 8.624 138.12 7.84 139.112 7.264C140.12 6.688 141.304 6.4 142.664 6.4C144.04 6.4 145.208 6.688 146.168 7.264C147.144 7.824 147.888 8.6 148.4 9.592C148.928 10.568 149.192 11.664 149.192 12.88V19H145.544V17.032H145.448C145.224 17.464 144.936 17.856 144.584 18.208C144.232 18.544 143.8 18.808 143.288 19C142.792 19.192 142.2 19.288 141.512 19.288ZM142.616 16.072C143.176 16.072 143.664 15.936 144.08 15.664C144.512 15.376 144.84 14.984 145.064 14.488C145.288 13.992 145.4 13.44 145.4 12.832C145.4 12.24 145.288 11.704 145.064 11.224C144.84 10.744 144.512 10.368 144.08 10.096C143.664 9.808 143.176 9.664 142.616 9.664C142.04 9.664 141.536 9.808 141.104 10.096C140.672 10.368 140.344 10.744 140.12 11.224C139.896 11.704 139.784 12.24 139.784 12.832C139.784 13.44 139.896 13.992 140.12 14.488C140.344 14.984 140.672 15.376 141.104 15.664C141.536 15.936 142.04 16.072 142.616 16.072ZM151.847 19V10.312C151.847 9.192 152.167 8.312 152.807 7.672C153.447 7.032 154.335 6.712 155.471 6.712H159.047V9.736H156.383C156.159 9.736 155.967 9.816 155.807 9.976C155.647 10.12 155.567 10.312 155.567 10.552V19H151.847ZM165.652 19.288C164.564 19.288 163.604 19.008 162.772 18.448C161.94 17.888 161.292 17.136 160.828 16.192C160.364 15.232 160.132 14.152 160.132 12.952C160.132 11.704 160.404 10.592 160.948 9.616C161.492 8.624 162.26 7.84 163.252 7.264C164.26 6.688 165.444 6.4 166.804 6.4C168.18 6.4 169.348 6.688 170.308 7.264C171.284 7.824 172.028 8.6 172.54 9.592C173.068 10.568 173.332 11.664 173.332 12.88V19H169.684V17.032H169.588C169.364 17.464 169.076 17.856 168.724 18.208C168.372 18.544 167.94 18.808 167.428 19C166.932 19.192 166.34 19.288 165.652 19.288ZM166.756 16.072C167.316 16.072 167.804 15.936 168.22 15.664C168.652 15.376 168.98 14.984 169.204 14.488C169.428 13.992 169.54 13.44 169.54 12.832C169.54 12.24 169.428 11.704 169.204 11.224C168.98 10.744 168.652 10.368 168.22 10.096C167.804 9.808 167.316 9.664 166.756 9.664C166.18 9.664 165.676 9.808 165.244 10.096C164.812 10.368 164.484 10.744 164.26 11.224C164.036 11.704 163.924 12.24 163.924 12.832C163.924 13.44 164.036 13.992 164.26 14.488C164.484 14.984 164.812 15.376 165.244 15.664C165.676 15.936 166.18 16.072 166.756 16.072Z" fill="#FF3B53"/>
</svg>
