<svg width="78" height="54" viewBox="0 0 78 54" fill="none" xmlns="http://www.w3.org/2000/svg">
<path d="M5.42434 24.256C4.44834 24.256 3.62434 24.072 2.95234 23.704C2.29634 23.336 1.80034 22.832 1.46434 22.192C1.12834 21.552 0.960344 20.824 0.960344 20.008C0.960344 19.192 1.12034 18.328 1.44034 17.416C1.76034 16.488 2.28834 15.576 3.02434 14.68C3.77634 13.784 4.78434 12.952 6.04834 12.184V5.56H2.71234V2.2H9.86434V19.192C9.86434 20.2 9.70434 21.08 9.38434 21.832C9.06434 22.6 8.57634 23.192 7.92034 23.608C7.26434 24.04 6.43234 24.256 5.42434 24.256ZM5.20834 20.8C5.40034 20.8 5.56834 20.744 5.71234 20.632C5.85634 20.52 5.96034 20.36 6.02434 20.152C6.10434 19.96 6.14434 19.728 6.14434 19.456V15.784C5.52034 16.296 5.07234 16.8 4.80034 17.296C4.54434 17.776 4.38434 18.208 4.32034 18.592C4.27234 18.976 4.24834 19.28 4.24834 19.504C4.24834 19.92 4.34434 20.24 4.53634 20.464C4.72834 20.688 4.95234 20.8 5.20834 20.8ZM17.6602 19.288C16.5722 19.288 15.6122 19.008 14.7802 18.448C13.9482 17.888 13.3002 17.136 12.8362 16.192C12.3722 15.232 12.1402 14.152 12.1402 12.952C12.1402 11.704 12.4122 10.592 12.9562 9.616C13.5002 8.624 14.2682 7.84 15.2602 7.264C16.2682 6.688 17.4522 6.4 18.8122 6.4C20.1882 6.4 21.3562 6.688 22.3162 7.264C23.2922 7.824 24.0362 8.6 24.5482 9.592C25.0762 10.568 25.3402 11.664 25.3402 12.88V19H21.6922V17.032H21.5962C21.3722 17.464 21.0842 17.856 20.7322 18.208C20.3802 18.544 19.9482 18.808 19.4362 19C18.9402 19.192 18.3482 19.288 17.6602 19.288ZM18.7642 16.072C19.3242 16.072 19.8122 15.936 20.2282 15.664C20.6602 15.376 20.9882 14.984 21.2122 14.488C21.4362 13.992 21.5482 13.44 21.5482 12.832C21.5482 12.24 21.4362 11.704 21.2122 11.224C20.9882 10.744 20.6602 10.368 20.2282 10.096C19.8122 9.808 19.3242 9.664 18.7642 9.664C18.1882 9.664 17.6842 9.808 17.2522 10.096C16.8202 10.368 16.4922 10.744 16.2682 11.224C16.0442 11.704 15.9322 12.24 15.9322 12.832C15.9322 13.44 16.0442 13.992 16.2682 14.488C16.4922 14.984 16.8202 15.376 17.2522 15.664C17.6842 15.936 18.1882 16.072 18.7642 16.072ZM33.0352 19.288C31.9472 19.288 30.9872 19.008 30.1552 18.448C29.3232 17.888 28.6752 17.136 28.2112 16.192C27.7472 15.232 27.5152 14.152 27.5152 12.952C27.5152 11.704 27.7872 10.592 28.3312 9.616C28.8752 8.624 29.6432 7.84 30.6352 7.264C31.6432 6.688 32.8272 6.4 34.1872 6.4C35.5632 6.4 36.7312 6.688 37.6912 7.264C38.6672 7.824 39.4112 8.6 39.9232 9.592C40.4512 10.568 40.7152 11.664 40.7152 12.88V19H37.0672V17.032H36.9712C36.7472 17.464 36.4592 17.856 36.1072 18.208C35.7552 18.544 35.3232 18.808 34.8112 19C34.3152 19.192 33.7232 19.288 33.0352 19.288ZM34.1392 16.072C34.6992 16.072 35.1872 15.936 35.6032 15.664C36.0352 15.376 36.3632 14.984 36.5872 14.488C36.8112 13.992 36.9232 13.44 36.9232 12.832C36.9232 12.24 36.8112 11.704 36.5872 11.224C36.3632 10.744 36.0352 10.368 35.6032 10.096C35.1872 9.808 34.6992 9.664 34.1392 9.664C33.5632 9.664 33.0592 9.808 32.6272 10.096C32.1952 10.368 31.8672 10.744 31.6432 11.224C31.4192 11.704 31.3072 12.24 31.3072 12.832C31.3072 13.44 31.4192 13.992 31.6432 14.488C31.8672 14.984 32.1952 15.376 32.6272 15.664C33.0592 15.936 33.5632 16.072 34.1392 16.072ZM49.4902 19.288C48.4662 19.288 47.5382 19.128 46.7062 18.808C45.8902 18.488 45.2022 18.032 44.6422 17.44C44.0822 16.832 43.6502 16.12 43.3462 15.304C43.0422 14.488 42.8902 13.6 42.8902 12.64C42.8902 11.392 43.1382 10.304 43.6342 9.376C44.1462 8.448 44.8422 7.72 45.7222 7.192C46.6182 6.664 47.6422 6.4 48.7942 6.4C49.2902 6.4 49.7542 6.464 50.1862 6.592C50.6342 6.72 51.0342 6.912 51.3862 7.168C51.7542 7.408 52.0582 7.696 52.2982 8.032H52.3702V1.48H56.0902V12.616C56.0902 13.96 55.8182 15.136 55.2742 16.144C54.7302 17.152 53.9622 17.928 52.9702 18.472C51.9942 19.016 50.8342 19.288 49.4902 19.288ZM49.4902 16.072C50.0662 16.072 50.5622 15.936 50.9782 15.664C51.4102 15.376 51.7382 14.992 51.9622 14.512C52.1862 14.016 52.2982 13.464 52.2982 12.856C52.2982 12.248 52.1862 11.704 51.9622 11.224C51.7382 10.744 51.4102 10.368 50.9782 10.096C50.5622 9.808 50.0662 9.664 49.4902 9.664C48.9302 9.664 48.4342 9.808 48.0022 10.096C47.5702 10.368 47.2422 10.744 47.0182 11.224C46.7942 11.704 46.6822 12.248 46.6822 12.856C46.6822 13.464 46.7942 14.016 47.0182 14.512C47.2422 14.992 47.5702 15.376 48.0022 15.664C48.4342 15.936 48.9302 16.072 49.4902 16.072ZM64.9149 19.288C63.6509 19.288 62.5549 19.048 61.6269 18.568C60.7149 18.072 60.0109 17.408 59.5149 16.576C59.0189 15.728 58.7709 14.792 58.7709 13.768V6.688H62.4909V13.672C62.4909 14.104 62.5949 14.504 62.8029 14.872C63.0109 15.224 63.2909 15.512 63.6429 15.736C64.0109 15.944 64.4269 16.048 64.8909 16.048C65.3389 16.048 65.7389 15.944 66.0909 15.736C66.4589 15.512 66.7469 15.224 66.9549 14.872C67.1629 14.504 67.2669 14.104 67.2669 13.672V6.688H70.9869V13.768C70.9869 14.792 70.7469 15.728 70.2669 16.576C69.7869 17.408 69.0909 18.072 68.1789 18.568C67.2829 19.048 66.1949 19.288 64.9149 19.288ZM73.7709 19V6.688H77.5149V19H73.7709ZM75.6429 5.296C75.0509 5.296 74.5389 5.08 74.1069 4.648C73.6749 4.216 73.4589 3.704 73.4589 3.112C73.4589 2.52 73.6749 2.008 74.1069 1.576C74.5389 1.128 75.0509 0.904 75.6429 0.904C76.2349 0.904 76.7469 1.128 77.1789 1.576C77.6109 2.008 77.8269 2.52 77.8269 3.112C77.8269 3.704 77.6109 4.216 77.1789 4.648C76.7469 5.08 76.2349 5.296 75.6429 5.296ZM5.81556 53V36.2H13.0396C14.1596 36.2 15.1836 36.456 16.1116 36.968C17.0556 37.48 17.8076 38.192 18.3676 39.104C18.9276 40 19.2076 41.04 19.2076 42.224C19.2076 43.408 18.9276 44.464 18.3676 45.392C17.8076 46.304 17.0636 47.016 16.1356 47.528C15.2076 48.04 14.1756 48.296 13.0396 48.296H9.84756V53H5.81556ZM9.84756 44.912H12.5836C13.0636 44.912 13.4956 44.808 13.8796 44.6C14.2636 44.392 14.5756 44.088 14.8156 43.688C15.0556 43.288 15.1756 42.808 15.1756 42.248C15.1756 41.688 15.0556 41.208 14.8156 40.808C14.5756 40.408 14.2556 40.104 13.8556 39.896C13.4716 39.672 13.0476 39.56 12.5836 39.56H9.84756V44.912ZM21.1889 53V40.688H24.9329V53H21.1889ZM23.0609 39.296C22.4689 39.296 21.9569 39.08 21.5249 38.648C21.0929 38.216 20.8769 37.704 20.8769 37.112C20.8769 36.52 21.0929 36.008 21.5249 35.576C21.9569 35.128 22.4689 34.904 23.0609 34.904C23.6529 34.904 24.1649 35.128 24.5969 35.576C25.0289 36.008 25.2449 36.52 25.2449 37.112C25.2449 37.704 25.0289 38.216 24.5969 38.648C24.1649 39.08 23.6529 39.296 23.0609 39.296ZM32.1696 53C31.0336 53 30.1456 52.68 29.5056 52.04C28.8656 51.384 28.5456 50.504 28.5456 49.4V37.688H32.2896V49.184C32.2896 49.376 32.3536 49.544 32.4816 49.688C32.6256 49.816 32.7936 49.88 32.9856 49.88H35.6736V53H32.1696ZM26.5296 43.736V40.688H35.6736V43.736H26.5296ZM42.4688 53.288C41.3808 53.288 40.4208 53.008 39.5888 52.448C38.7568 51.888 38.1088 51.136 37.6448 50.192C37.1808 49.232 36.9488 48.152 36.9488 46.952C36.9488 45.704 37.2208 44.592 37.7648 43.616C38.3088 42.624 39.0768 41.84 40.0688 41.264C41.0768 40.688 42.2608 40.4 43.6208 40.4C44.9968 40.4 46.1648 40.688 47.1248 41.264C48.1008 41.824 48.8448 42.6 49.3568 43.592C49.8848 44.568 50.1488 45.664 50.1488 46.88V53H46.5008V51.032H46.4048C46.1808 51.464 45.8928 51.856 45.5408 52.208C45.1888 52.544 44.7568 52.808 44.2448 53C43.7488 53.192 43.1568 53.288 42.4688 53.288ZM43.5728 50.072C44.1328 50.072 44.6208 49.936 45.0368 49.664C45.4688 49.376 45.7968 48.984 46.0208 48.488C46.2448 47.992 46.3568 47.44 46.3568 46.832C46.3568 46.24 46.2448 45.704 46.0208 45.224C45.7968 44.744 45.4688 44.368 45.0368 44.096C44.6208 43.808 44.1328 43.664 43.5728 43.664C42.9968 43.664 42.4928 43.808 42.0608 44.096C41.6288 44.368 41.3008 44.744 41.0768 45.224C40.8528 45.704 40.7408 46.24 40.7408 46.832C40.7408 47.44 40.8528 47.992 41.0768 48.488C41.3008 48.984 41.6288 49.376 42.0608 49.664C42.4928 49.936 42.9968 50.072 43.5728 50.072ZM52.8038 53V44.312C52.8038 43.192 53.1238 42.312 53.7638 41.672C54.4038 41.032 55.2918 40.712 56.4278 40.712H60.0038V43.736H57.3398C57.1158 43.736 56.9238 43.816 56.7638 43.976C56.6038 44.12 56.5238 44.312 56.5238 44.552V53H52.8038ZM66.6094 53.288C65.5214 53.288 64.5614 53.008 63.7294 52.448C62.8974 51.888 62.2494 51.136 61.7854 50.192C61.3214 49.232 61.0894 48.152 61.0894 46.952C61.0894 45.704 61.3614 44.592 61.9054 43.616C62.4494 42.624 63.2174 41.84 64.2094 41.264C65.2174 40.688 66.4014 40.4 67.7614 40.4C69.1374 40.4 70.3054 40.688 71.2654 41.264C72.2414 41.824 72.9854 42.6 73.4974 43.592C74.0254 44.568 74.2894 45.664 74.2894 46.88V53H70.6414V51.032H70.5454C70.3214 51.464 70.0334 51.856 69.6814 52.208C69.3294 52.544 68.8974 52.808 68.3854 53C67.8894 53.192 67.2974 53.288 66.6094 53.288ZM67.7134 50.072C68.2734 50.072 68.7614 49.936 69.1774 49.664C69.6094 49.376 69.9374 48.984 70.1614 48.488C70.3854 47.992 70.4974 47.44 70.4974 46.832C70.4974 46.24 70.3854 45.704 70.1614 45.224C69.9374 44.744 69.6094 44.368 69.1774 44.096C68.7614 43.808 68.2734 43.664 67.7134 43.664C67.1374 43.664 66.6334 43.808 66.2014 44.096C65.7694 44.368 65.4414 44.744 65.2174 45.224C64.9934 45.704 64.8814 46.24 64.8814 46.832C64.8814 47.44 64.9934 47.992 65.2174 48.488C65.4414 48.984 65.7694 49.376 66.2014 49.664C66.6334 49.936 67.1374 50.072 67.7134 50.072Z" fill="white"/>
</svg>
