<svg width="72" height="72" viewBox="0 0 72 72" fill="none" xmlns="http://www.w3.org/2000/svg">
<g id="EJP 1" clip-path="url(#clip0_21_395)">
<g id="Layer 1">
<g id="Group">
<g id="Group_2">
<path id="Vector" d="M30.9564 71.7619L6.46387 60.7868C2.54372 59.0288 0 55.0226 0 50.5821V18.9315C0 16.8374 2.06466 15.4366 3.91341 16.263L28.406 27.2381C32.3261 28.9961 34.8698 33.0023 34.8698 37.4428V69.1004C34.8698 71.1946 32.8052 72.5953 30.9564 71.7689V71.7619Z" fill="#FF3B53"/>
<path id="Vector_2" d="M41.0368 71.7619L65.5294 60.7868C69.4495 59.0288 71.9932 55.0226 71.9932 50.5821V18.9315C71.9932 16.8374 69.9286 15.4366 68.0798 16.263L43.5873 27.2381C39.6671 28.9961 37.1234 33.0023 37.1234 37.4428V69.1004C37.1234 71.1946 39.1881 72.5953 41.0368 71.7689V71.7619Z" fill="#FF3B53"/>
</g>
<path id="Vector_3" d="M66.5617 11.8225L41.3472 1.25364C37.4136 -0.399275 33.0211 -0.413283 29.074 1.19761L4.34526 11.2972C3.29943 11.7245 3.27919 13.2583 4.31152 13.7136L29.0875 24.6536C33.1628 26.4536 37.7577 26.4817 41.8533 24.7447L66.5617 14.2389C67.6076 13.7976 67.6008 12.2568 66.5617 11.8225Z" fill="#FFBC00"/>
<g id="Group_3">
<path id="Vector_4" d="M30.5853 17.7198C33.7362 19.1136 37.2988 19.1346 40.4633 17.7899L42.589 16.888C43.3559 16.5626 43.862 15.7906 43.7025 14.9728C43.2989 12.9038 42.1792 11.009 40.3958 9.78441C37.6699 7.90737 34.4447 7.84433 31.5771 9.4132C30.8147 9.82643 30.1197 10.3657 29.5192 11.0101C28.696 11.8926 28.1225 12.8521 27.7447 14.0148C27.6538 14.2952 27.5748 14.5808 27.5087 14.8696C27.319 15.6977 27.8127 16.5001 28.5895 16.8438L30.5853 17.7268V17.7198Z" fill="white"/>
<g id="Group_4">
<path id="Vector_5" d="M35.9359 6.05135C36.2328 5.85524 36.2463 5.37197 36.2868 5.07781C36.3812 4.44746 36.3812 3.81011 36.2868 3.18676C36.2463 2.92061 35.9764 1.96108 35.5648 2.06614C35.5176 2.05913 35.4636 2.06614 35.4096 2.09415C35.079 2.28326 34.9441 2.52839 34.8833 2.8926C34.7754 3.52995 34.7012 4.31439 34.8091 4.95174C34.8766 5.35096 35.3017 6.47859 35.9359 6.05835V6.05135Z" fill="white"/>
<path id="Vector_6" d="M39.3298 7.05292C39.7144 7.15798 40.1327 6.75175 40.3756 6.49961C40.8209 6.03035 42.0422 4.51751 41.3337 3.82413C41.3135 3.80312 41.2932 3.78911 41.273 3.7751C41.1988 3.76109 41.1313 3.74709 41.0638 3.74008C41.0301 3.74008 40.9896 3.74008 40.9559 3.74008C40.7872 3.76109 40.6253 3.82413 40.4701 3.90818C40.2069 4.11129 39.9843 4.36343 39.7819 4.65759C39.4782 5.10584 39.0869 5.68716 38.9789 6.23347C38.9182 6.54864 38.9722 6.96187 39.3298 7.05993V7.05292Z" fill="white"/>
<path id="Vector_7" d="M45.0987 8.35564C45.2337 8.21557 45.3484 8.06848 45.4293 7.9144C45.4361 7.90039 45.4496 7.88638 45.4631 7.87237C45.5643 7.71829 45.6182 7.58522 45.598 7.43813C45.625 7.3821 45.6317 7.31907 45.6048 7.24903C45.3214 6.4786 44.2013 7.23502 43.8167 7.50817C43.3917 7.80234 42.2918 8.61479 42.4673 9.26615C42.6562 9.98055 43.6076 9.63736 43.9922 9.3572C44.1406 9.25214 44.2823 9.13307 44.4172 9.007C44.424 9.007 44.4375 9.007 44.4442 9.007C44.451 9.007 44.4577 8.993 44.4712 8.98599C44.505 8.95798 44.5319 8.93697 44.5657 8.90895C44.5724 8.90895 44.5792 8.89494 44.5859 8.89494C44.5859 8.89494 44.5994 8.89494 44.6062 8.88794C44.6939 8.78988 44.7816 8.69183 44.8761 8.59378C44.957 8.51673 45.0312 8.43969 45.1055 8.36265L45.0987 8.35564Z" fill="white"/>
<path id="Vector_8" d="M48.587 10.7159C48.1957 10.3938 47.2916 10.758 46.9475 10.9051C46.4347 11.1292 45.679 11.4654 45.3011 11.9907C45.2674 12.0187 45.2539 12.0467 45.2471 12.0747C45.2471 12.0817 45.2336 12.0957 45.2269 12.1027C45.0245 12.3409 44.9503 12.607 45.1864 12.8521C45.8342 13.5105 47.3793 12.3549 47.9191 12.0117C48.2159 11.8226 48.7355 11.5984 48.7962 11.1922C48.8299 10.9751 48.7422 10.807 48.5803 10.7089L48.587 10.7159Z" fill="white"/>
<path id="Vector_9" d="M25.12 11.4794C24.506 11.1992 23.8313 10.8981 23.1903 10.709C22.9609 10.6389 22.6775 10.5899 22.4819 10.73C22.4684 10.73 22.4616 10.73 22.4481 10.744C21.6115 11.2062 22.4279 12.1097 22.9677 12.3689C23.5209 12.635 24.0944 12.9012 24.668 13.1183C25.0256 13.2514 25.6261 13.4405 25.9769 13.1673C26.7326 12.579 25.6058 11.7105 25.12 11.4864V11.4794Z" fill="white"/>
<path id="Vector_10" d="M28.4599 9.25214C28.9457 8.95798 28.75 8.43269 28.4936 8.04047C28.0483 7.3751 27.4613 6.63969 26.8676 6.1144C26.6314 5.90428 26.1996 5.63113 25.9229 5.91129C24.9378 6.54864 26.6247 8.36965 27.1239 8.8179C27.4748 9.13308 27.9808 9.5393 28.4599 9.25214Z" fill="white"/>
<path id="Vector_11" d="M30.7068 6.20543C30.916 6.63967 31.1589 7.34006 31.7189 7.38208C32.2587 7.4241 32.2722 6.84278 32.2384 6.42955C32.1845 5.72916 31.9618 5.04278 31.5975 4.44045C31.3613 4.04823 30.9092 3.34784 30.3897 3.34784C29.5733 3.34784 29.8229 4.23733 30.194 5.01477C30.3897 5.54706 30.6326 6.04434 30.7068 6.19842V6.20543Z" fill="white"/>
</g>
</g>
</g>
</g>
</g>
<defs>
<clipPath id="clip0_21_395">
<rect width="72" height="72" fill="white"/>
</clipPath>
</defs>
</svg>
