<svg xmlns="http://www.w3.org/2000/svg" width="23" height="18" viewBox="0 0 23 18" fill="">
    <path
        d="M22.9034 3.43844V17.7606C22.9034 17.7923 22.8971 17.8237 22.8849 17.8529C22.8727 17.8822 22.8548 17.9087 22.8322 17.9309C22.8096 17.9532 22.7829 17.9707 22.7535 17.9826C22.7241 17.9944 22.6926 18.0002 22.6609 17.9998H10.548C10.4846 17.9998 10.4238 17.9746 10.3789 17.9297C10.334 17.8849 10.3088 17.824 10.3088 17.7606V15.5912H19.4649C19.7384 15.5912 20.0007 15.4828 20.1943 15.2897C20.388 15.0967 20.4973 14.8347 20.4981 14.5613V3.19924H22.6642C22.6958 3.1988 22.7271 3.20468 22.7563 3.21654C22.7855 3.2284 22.8121 3.246 22.8344 3.26831C22.8567 3.29061 22.8743 3.31716 22.8861 3.34638C22.898 3.3756 22.9039 3.40691 22.9034 3.43844Z"
        fill="" />
    <path
        d="M9.09619 8.71777L9.63439 10.854L7.49487 10.3191L7.8869 9.92374L8.29553 9.51843L8.64104 9.1696L9.09619 8.71777Z"
        fill="" />
    <path
        d="M2.03321 1.22266L2.52822 1.72099L1.51494 2.7376L0.498336 3.75088L0 3.25254L2.03321 1.22266Z"
        fill="" />
    <path
        d="M7.45502 9.23912L6.72081 9.97333L1.0564 4.31224L1.79393 3.57471L4.62448 6.40857L7.45502 9.23912Z"
        fill="" />
    <path
        d="M8.75068 7.94371L8.71081 7.98357L8.01646 8.67792L5.18259 5.84738L2.35205 3.01683L3.08959 2.2793L6.43176 5.62479H6.43508L8.75068 7.94371Z"
        fill="" />
    <path
        d="M9.65436 7.75087C9.71161 7.78141 9.77551 7.79738 9.8404 7.79738H16.9732C17.0781 7.79738 17.1787 7.75573 17.2528 7.68159C17.3269 7.60745 17.3686 7.50689 17.3686 7.40204C17.3686 7.29718 17.3269 7.19662 17.2528 7.12248C17.1787 7.04834 17.0781 7.00669 16.9732 7.00669H9.84372C9.74118 7.00927 9.64366 7.05161 9.57175 7.12476C9.49984 7.19791 9.45917 7.29614 9.45834 7.39871C9.45843 7.45002 9.46859 7.50082 9.48824 7.54821L7.11949 5.18278V0.239295C7.11903 0.207473 7.12501 0.175888 7.13708 0.14644C7.14915 0.116991 7.16705 0.0902889 7.18971 0.0679409C7.21237 0.045593 7.23931 0.0280616 7.26892 0.0164017C7.29854 0.00474177 7.3302 -0.000805513 7.36201 9.4304e-05H19.4649C19.4967 -0.000805513 19.5284 0.00474177 19.558 0.0164017C19.5876 0.0280616 19.6146 0.045593 19.6372 0.0679409C19.6599 0.0902889 19.6778 0.116991 19.6899 0.14644C19.7019 0.175888 19.7079 0.207473 19.7074 0.239295V14.5615C19.7074 14.5931 19.7011 14.6245 19.6889 14.6538C19.6767 14.683 19.6588 14.7095 19.6362 14.7318C19.6136 14.754 19.5869 14.7716 19.5575 14.7834C19.5281 14.7952 19.4966 14.8011 19.4649 14.8007H7.34873C7.31703 14.8011 7.28557 14.7952 7.25617 14.7834C7.22676 14.7716 7.2 14.754 7.17743 14.7318C7.15487 14.7095 7.13695 14.683 7.12472 14.6538C7.11249 14.6245 7.1062 14.5931 7.1062 14.5615V11.0399L10.0431 11.7741C10.0857 11.7894 10.1306 11.7973 10.1759 11.7974H16.9732C17.0781 11.7974 17.1787 11.7557 17.2528 11.6816C17.3269 11.6074 17.3686 11.5069 17.3686 11.402C17.3686 11.2972 17.3269 11.1966 17.2528 11.1225C17.1787 11.0483 17.0781 11.0067 16.9732 11.0067H10.4849L9.69422 7.85054V7.81067L9.67429 7.7708L9.65436 7.75087ZM17.3686 3.40206C17.3651 3.29953 17.322 3.20236 17.2482 3.13106C17.1744 3.05977 17.0758 3.01995 16.9732 3.02001H9.84372C9.73887 3.02001 9.63831 3.06166 9.56417 3.1358C9.49003 3.20994 9.44838 3.3105 9.44838 3.41535C9.44838 3.5202 9.49003 3.62076 9.56417 3.6949C9.63831 3.76905 9.73887 3.8107 9.84372 3.8107H16.9732C17.0263 3.81073 17.0788 3.80008 17.1277 3.77939C17.1765 3.75869 17.2207 3.72838 17.2576 3.69025C17.2945 3.65212 17.3233 3.60695 17.3424 3.55744C17.3615 3.50793 17.3704 3.45509 17.3686 3.40206Z"
        fill="" />
</svg>