<svg width="120" height="120" viewBox="0 0 120 120" fill="none" xmlns="http://www.w3.org/2000/svg">
<circle cx="60" cy="60" r="60" fill=""/>
<g filter="url(#filter0_d_1736_2591)">
<path fill-rule="evenodd" clip-rule="evenodd" d="M57.4633 24C54.4819 24 52.0649 26.4169 52.0649 29.3984V52.3415C52.0649 55.3229 54.4819 57.7398 57.4633 57.7398H80.4064L93.6916 69.2921C94.5651 70.0517 95.9267 69.4313 95.9267 68.2737V57.7398H96.6015C99.583 57.7398 102 55.3229 102 52.3415V29.3984C102 26.4169 99.583 24 96.6015 24H57.4633Z" fill="#CF4147"/>
<path d="M84.1315 36.0654V50.4251C83.9695 50.4611 83.7806 50.4971 83.5646 50.5331C83.3487 50.5871 83.0968 50.6141 82.8089 50.6141C82.1431 50.6141 81.6752 50.5061 81.4053 50.2902C81.1354 50.0562 81.0004 49.6873 81.0004 49.1835V43.6232C80.6585 43.6952 80.1816 43.7311 79.5698 43.7311C79.03 43.7311 78.4632 43.6772 77.8693 43.5692C77.2755 43.4432 76.7897 43.2993 76.4118 43.1373L76.3578 43.2183C76.6817 43.4882 76.9426 43.8571 77.1406 44.325C77.3565 44.7928 77.4645 45.2697 77.4645 45.7555C77.4645 47.0331 76.9606 48.0408 75.9529 48.7786C74.9452 49.5164 73.5416 49.8853 71.7422 49.8853C71.1484 49.8853 70.5635 49.8403 69.9877 49.7503C69.4119 49.6604 68.89 49.5254 68.4222 49.3455C67.9723 49.1475 67.6034 48.9046 67.3155 48.6167C67.0456 48.3108 66.9106 47.9599 66.9106 47.564C66.9106 47.1321 67.0276 46.7812 67.2615 46.5113C67.4955 46.2414 67.7474 46.0614 68.0173 45.9715C68.4312 46.3314 68.926 46.6463 69.5019 46.9162C70.0777 47.1681 70.7435 47.2941 71.4993 47.2941C72.363 47.2941 73.0378 47.0961 73.5237 46.7002C74.0095 46.3044 74.2524 45.7645 74.2524 45.0807C74.2524 44.4149 74.0365 43.8841 73.6046 43.4882C73.1908 43.0743 72.6329 42.8674 71.9311 42.8674H69.3939C69.3039 42.7234 69.2229 42.5525 69.151 42.3546C69.097 42.1386 69.07 41.8957 69.07 41.6258C69.07 41.3738 69.097 41.1399 69.151 40.924C69.2229 40.7081 69.3039 40.5191 69.3939 40.3572H71.6612C72.381 40.3572 72.9388 40.1682 73.3347 39.7903C73.7486 39.4124 73.9555 38.8906 73.9555 38.2248C73.9555 37.631 73.7576 37.1271 73.3617 36.7133C72.9658 36.2994 72.345 36.0924 71.4993 36.0924C70.9054 36.0924 70.3746 36.2004 69.9067 36.4163C69.4569 36.6323 69.079 36.8842 68.7731 37.1721C68.4312 37.0282 68.1523 36.8302 67.9363 36.5783C67.7204 36.3084 67.6124 35.9935 67.6124 35.6336C67.6124 35.0398 67.9903 34.5359 68.7461 34.122C69.5199 33.7082 70.5545 33.5012 71.8502 33.5012C72.6239 33.5012 73.3347 33.6092 73.9825 33.8251C74.6303 34.0231 75.1882 34.311 75.656 34.6889C76.1419 35.0667 76.5198 35.5256 76.7897 36.0654C77.0596 36.5873 77.1945 37.1811 77.1945 37.8469C77.1945 38.5307 77.0416 39.1335 76.7357 39.6554C76.4478 40.1772 76.0969 40.5911 75.683 40.897C75.9349 40.987 76.2948 41.0679 76.7627 41.1399C77.2485 41.1939 77.6984 41.2209 78.1123 41.2209C79.174 41.2209 80.1367 41.0769 81.0004 40.789V36.0654H79.3269C78.967 36.0654 78.7151 35.9665 78.5711 35.7685C78.4272 35.5706 78.3552 35.2647 78.3552 34.8508C78.3552 34.6889 78.3732 34.4999 78.4092 34.284C78.4452 34.0501 78.4902 33.8611 78.5441 33.7172H86.0749C86.7227 33.7172 87.0466 34.113 87.0466 34.9048C87.0466 35.0667 87.0286 35.2647 86.9926 35.4986C86.9566 35.7325 86.9026 35.9215 86.8306 36.0654H84.1315Z" fill="white"/>
<path fill-rule="evenodd" clip-rule="evenodd" d="M63.5367 50.317C66.5181 50.317 68.9351 52.734 68.9351 55.7154V78.6585C68.9351 81.6399 66.5181 84.0569 63.5367 84.0569H40.5936L27.3084 95.6092C26.4349 96.3687 25.0733 95.7483 25.0733 94.5908V84.0569H24.3985C21.417 84.0569 19.0001 81.6399 19.0001 78.6585V55.7154C19.0001 52.734 21.417 50.317 24.3985 50.317H63.5367Z" fill="#FCB915"/>
<path d="M48.6724 75.2846L47.4091 71.1548H41.093L39.8298 75.2846H35.8701L41.9919 57.8667H46.486L52.6321 75.2846H48.6724ZM45.2714 64.037C45.1904 63.7617 45.0851 63.4135 44.9556 62.9925C44.826 62.5714 44.6965 62.1422 44.5669 61.7049C44.4373 61.2677 44.3321 60.8871 44.2511 60.5632C44.1701 60.8871 44.0568 61.292 43.911 61.7778C43.7814 62.2475 43.6519 62.7009 43.5223 63.1382C43.4089 63.5593 43.3199 63.8589 43.2551 64.037L42.0162 68.0696H46.5346L45.2714 64.037Z" fill="white"/>
</g>
<defs>
<filter id="filter0_d_1736_2591" x="19" y="24" width="85" height="73.943" filterUnits="userSpaceOnUse" color-interpolation-filters="sRGB">
<feFlood flood-opacity="0" result="BackgroundImageFix"/>
<feColorMatrix in="SourceAlpha" type="matrix" values="0 0 0 0 0 0 0 0 0 0 0 0 0 0 0 0 0 0 127 0" result="hardAlpha"/>
<feOffset dx="2" dy="2"/>
<feComposite in2="hardAlpha" operator="out"/>
<feColorMatrix type="matrix" values="0 0 0 0 0 0 0 0 0 0 0 0 0 0 0 0 0 0 0.25 0"/>
<feBlend mode="normal" in2="BackgroundImageFix" result="effect1_dropShadow_1736_2591"/>
<feBlend mode="normal" in="SourceGraphic" in2="effect1_dropShadow_1736_2591" result="shape"/>
</filter>
</defs>
</svg>
