<svg xmlns="http://www.w3.org/2000/svg" width="28" height="28" viewBox="0 0 28 28" fill="none">
    <g clip-path="url(#clip0_352_292)">
        <path
            d="M14 16.25C15.8675 16.25 17.3637 14.7425 17.3637 12.875L17.375 6.125C17.375 4.2575 15.8675 2.75 14 2.75C12.1325 2.75 10.625 4.2575 10.625 6.125V12.875C10.625 14.7425 12.1325 16.25 14 16.25ZM19.9625 12.875C19.9625 16.25 17.105 18.6125 14 18.6125C10.895 18.6125 8.0375 16.25 8.0375 12.875H6.125C6.125 16.7113 9.185 19.8837 12.875 20.435V24.125H15.125V20.435C18.815 19.895 21.875 16.7225 21.875 12.875H19.9625Z"
            fill="white" />
    </g>
    <defs>
        <clipPath id="clip0_352_292">
            <rect width="27" height="27" fill="white" transform="translate(0.5 0.5)" />
        </clipPath>
    </defs>
</svg>