<svg xmlns="http://www.w3.org/2000/svg" width="18" height="20" viewBox="0 0 18 20" fill="">
    <path fill-rule="evenodd" clip-rule="evenodd"
        d="M6.74881 17.529C6.74881 17.6124 6.71554 17.6923 6.65631 17.7513C6.59709 17.8103 6.51676 17.8434 6.433 17.8434C6.34924 17.8434 6.26891 17.8103 6.20968 17.7513C6.15046 17.6923 6.11718 17.6124 6.11718 17.529V16.3315C6.11718 16.2481 6.15046 16.1681 6.20968 16.1091C6.26891 16.0502 6.34924 16.017 6.433 16.017C6.51676 16.017 6.59709 16.0502 6.65631 16.1091C6.71554 16.1681 6.74881 16.2481 6.74881 16.3315V17.529ZM5.48884 16.8046C5.48884 16.888 5.45557 16.9679 5.39634 17.0269C5.33712 17.0859 5.25679 17.119 5.17303 17.119C5.08927 17.119 5.00894 17.0859 4.94971 17.0269C4.89049 16.9679 4.85721 16.888 4.85721 16.8046V15.6073C4.85721 15.5239 4.89049 15.444 4.94971 15.385C5.00894 15.326 5.08927 15.2929 5.17303 15.2929C5.25679 15.2929 5.33712 15.326 5.39634 15.385C5.45557 15.444 5.48884 15.5239 5.48884 15.6073V16.8046ZM4.22938 16.0804C4.22938 16.1638 4.1961 16.2438 4.13688 16.3028C4.07765 16.3617 3.99732 16.3948 3.91356 16.3948C3.8298 16.3948 3.74948 16.3617 3.69025 16.3028C3.63102 16.2438 3.59775 16.1638 3.59775 16.0804V14.8829C3.59775 14.7995 3.63102 14.7196 3.69025 14.6606C3.74948 14.6016 3.8298 14.5685 3.91356 14.5685C3.99732 14.5685 4.07765 14.6016 4.13688 14.6606C4.1961 14.7196 4.22938 14.7995 4.22938 14.8829V16.0804ZM2.9689 15.3575C2.9689 15.4409 2.93563 15.5209 2.8764 15.5799C2.81717 15.6388 2.73685 15.672 2.65309 15.672C2.56933 15.672 2.489 15.6388 2.42977 15.5799C2.37055 15.5209 2.33727 15.4409 2.33727 15.3575V14.1588C2.33727 14.0754 2.37055 13.9954 2.42977 13.9364C2.489 13.8775 2.56933 13.8444 2.65309 13.8444C2.73685 13.8444 2.81717 13.8775 2.8764 13.9364C2.93563 13.9954 2.9689 14.0754 2.9689 14.1588V15.3575ZM1.70893 14.6331C1.70893 14.7165 1.67566 14.7965 1.61643 14.8555C1.5572 14.9144 1.47688 14.9476 1.39312 14.9476C1.30936 14.9476 1.22903 14.9144 1.1698 14.8555C1.11058 14.7965 1.0773 14.7165 1.0773 14.6331V13.4359C1.0773 13.3525 1.11058 13.2725 1.1698 13.2135C1.22903 13.1546 1.30936 13.1215 1.39312 13.1215C1.47688 13.1215 1.5572 13.1546 1.61643 13.2135C1.67566 13.2725 1.70893 13.3525 1.70893 13.4359V14.6331ZM5.21623 8.40556L3.43075 7.37933V11.6535L3.8413 11.1286C3.85939 11.1057 3.88056 11.0854 3.90421 11.0682C3.97161 11.0194 4.05571 10.9993 4.13804 11.0121C4.22037 11.025 4.2942 11.0699 4.34332 11.1369L5.21623 12.3279V8.40556ZM0 5.40735V15.1372L4.37086 17.6497C4.37692 17.6525 4.38274 17.6558 4.38855 17.659L8.46128 20V10.2706L5.84786 8.76751V13.2897C5.84774 13.3586 5.82491 13.4256 5.78286 13.4803C5.74082 13.5351 5.68189 13.5746 5.61512 13.5927C5.54836 13.6109 5.47745 13.6067 5.41328 13.5809C5.34912 13.5551 5.29525 13.509 5.25994 13.4497L4.08132 11.8417L3.36304 12.76C3.32274 12.8115 3.26729 12.8492 3.20444 12.8677C3.14159 12.8863 3.07449 12.8849 3.0125 12.8636C2.95052 12.8423 2.89675 12.8023 2.85872 12.7492C2.82069 12.696 2.80029 12.6324 2.80038 12.5671H2.79912V7.01637L0 5.40659V5.40735ZM11.3973 1.50615L2.98381 6.34203C2.96609 6.34997 2.94917 6.35957 2.93328 6.3707L0.313287 4.8643L4.38754 2.52257L8.77709 0L11.3973 1.50615ZM13.9913 2.99645L5.52724 7.86201L3.56288 6.7329L12.0267 1.86835L13.1661 2.52232L13.1838 2.53163L13.9923 2.9962L13.9913 2.99645ZM17.2409 4.8643L8.77709 9.72935L6.15609 8.2227L14.5567 3.39336C14.5768 3.38181 14.5956 3.36815 14.6128 3.35262L17.2404 4.86329L17.2409 4.8643ZM9.09291 20L17.5542 15.1367V5.40735L9.09291 10.2706V20ZM11.0805 16.9565C11.0447 16.9787 11.0047 16.9935 10.963 17C10.9213 17.0065 10.8787 17.0046 10.8377 16.9943C10.7968 16.9841 10.7583 16.9658 10.7246 16.9404C10.691 16.9151 10.6628 16.8832 10.6417 16.8468C10.6206 16.8104 10.6072 16.7701 10.6021 16.7283C10.597 16.6866 10.6004 16.6443 10.6121 16.6039C10.6238 16.5635 10.6435 16.5259 10.6701 16.4933C10.6967 16.4606 10.7297 16.4337 10.767 16.414L12.774 15.2605C12.8098 15.24 12.8493 15.2267 12.8903 15.2214C12.9312 15.2162 12.9728 15.219 13.0127 15.2297C13.0525 15.2404 13.0899 15.2588 13.1226 15.2839C13.1553 15.309 13.1827 15.3403 13.2033 15.3759C13.2239 15.4115 13.2372 15.4509 13.2425 15.4916C13.2478 15.5324 13.245 15.5738 13.2342 15.6135C13.2234 15.6532 13.2049 15.6904 13.1797 15.7229C13.1545 15.7555 13.1231 15.7828 13.0873 15.8033L11.0805 16.9565Z"
        fill="" />
</svg>